#!OML:ASF H:\GeneralSubjects\Female5\Project 1\Capture day 1\Session 1\Female5.ASF
:FULLY-SPECIFIED
:DEGREES
365
root 28.7274 15.2896 4.39646 541.035 261.438 190.281
lowerback 14.846 -3.08336 -12.6324
upperback -12.3311 -6.50171 9.06132
thorax -20.4712 -0.00899142 20.7069
lowerneck -18.3701 1.63354 -1.34673
upperneck 26.3214 4.82168 -8.7528
head 11.9382 0.655147 -2.34203
rclavicle -2.0276e-014 1.43125e-014
rhumerus -61.8116 37.375 -83.2549
rradius 33.0492
rwrist -17.0186
rhand -21.8837 -20.0471
rfingers 7.12502
rthumb 4.52106 -49.9788
lclavicle -2.0276e-014 1.43125e-014
lhumerus -51.3565 9.7919 85.8105
lradius 41.9721
lwrist -7.14069
lhand -25.5296 28.9184
lfingers 7.12502
lthumb 1.00011 58.8958
rfemur -36.5698 7.94744 22.0001
rtibia 17.8564
rfoot -13.9893 -22.1328
rtoes -6.72675
lfemur 17.2432 -20.8429 -38.6539
ltibia 6.37341
lfoot -16.0365 -27.6118
ltoes -27.2827
366
root 28.3677 15.3291 4.36422 542.487 262.114 188.787
lowerback 14.3408 -3.02492 -12.2787
upperback -12.3169 -6.27349 9.08271
thorax -20.2431 -0.0128758 20.3659
lowerneck -18.4508 1.77356 -1.23276
upperneck 26.7167 5.04033 -8.85229
head 12.1274 0.725073 -2.37833
rclavicle 6.52014e-014 -1.09729e-013
rhumerus -61.5917 37.7818 -83.6637
rradius 32.7354
rwrist -16.6894
rhand -21.9871 -20.1261
rfingers 7.12502
rthumb 4.42126 -50.06
lclavicle 6.52014e-014 -1.09729e-013
lhumerus -52.8383 11.1296 84.3378
lradius 40.4189
lwrist -7.33937
lhand -25.9555 28.9763
lfingers 7.12502
lthumb 0.588772 58.9552
rfemur -35.6442 7.14037 23.5795
rtibia 18.7884
rfoot -12.4548 -20.6781
rtoes -7.68722
lfemur 16.6511 -18.7993 -37.2234
ltibia 8.56846
lfoot -17.2675 -23.819
ltoes -18.8112
367
root 28.0071 15.37 4.32634 544.039 262.77 187.073
lowerback 13.847 -2.95347 -12.0901
upperback -12.2338 -6.05981 9.16212
thorax -19.9039 -0.00821717 20.1993
lowerneck -18.4083 1.89783 -1.2541
upperneck 27.1156 5.24656 -8.87382
head 12.2885 0.786562 -2.36412
rclavicle -2.42517e-014 5.725e-014
rhumerus -61.1005 38.1933 -83.8299
rradius 32.5662
rwrist -16.6136
rhand -21.9361 -20.2953
rfingers 7.12502
rthumb 4.4705 -50.2281
lclavicle -2.42517e-014 5.725e-014
lhumerus -54.2214 12.8194 82.5628
lradius 38.5537
lwrist -7.63995
lhand -25.4223 28.4315
lfingers 7.12502
lthumb 1.10368 58.4084
rfemur -33.9454 6.85363 24.9396
rtibia 18.6361
rfoot -11.6436 -19.2147
rtoes -6.20454
lfemur 15.7157 -16.0914 -35.3993
ltibia 11.2631
lfoot -17.8111 -18.9607
ltoes -13.3836
368
root 27.65 15.4135 4.28867 547.102 263.456 183.684
lowerback 13.7001 -2.7906 -11.7607
upperback -12.1897 -5.73122 9.19593
thorax -19.9225 0.0886852 19.9359
lowerneck -18.333 1.9686 -1.32209
upperneck 27.7966 5.31721 -8.59465
head 12.5359 0.809936 -2.25665
rclavicle 4.73108e-014 -8.5875e-014
rhumerus -60.7541 38.3359 -84.0342
rradius 32.627
rwrist -16.6744
rhand -21.9315 -20.5355
rfingers 7.12502
rthumb 4.47494 -50.4682
lclavicle 4.73108e-014 -8.5875e-014
lhumerus -55.7072 14.3416 80.54
lradius 36.6368
lwrist -7.80406
lhand -23.512 27.652
lfingers 7.12502
lthumb 2.94864 57.6114
rfemur -31.8364 6.82054 26.3756
rtibia 18.1182
rfoot -11.4723 -17.9382
rtoes -5.22868
lfemur 14.3828 -12.8496 -33.14
ltibia 14.6849
lfoot -18.4879 -13.4144
ltoes -11.4864
369
root 27.2993 15.4643 4.2498 551.251 264.068 179.138
lowerback 13.7122 -2.62079 -11.3617
upperback -12.1415 -5.39211 9.22087
thorax -20.0507 0.197507 19.6394
lowerneck -18.218 2.01015 -1.47552
upperneck 28.5348 5.34279 -8.23548
head 12.7942 0.81169 -2.11186
rclavicle 9.02482e-014 -9.85972e-014
rhumerus -60.4568 38.4816 -84.3059
rradius 32.8373
rwrist -16.7593
rhand -22.0164 -20.6964
rfingers 7.12502
rthumb 4.39296 -50.6309
lclavicle 9.02482e-014 -9.85972e-014
lhumerus -57.2272 15.7129 78.4636
lradius 34.7695
lwrist -7.30507
lhand -24.5507 32.9346
lfingers 7.12502
lthumb 1.94553 62.9055
rfemur -29.5221 7.04743 27.7327
rtibia 17.4444
rfoot -11.7697 -17.0023
rtoes -5.02537
lfemur 12.4957 -9.5773 -30.8075
ltibia 19.2032
lfoot -19.8529 -7.42175
ltoes -12.4304
370
root 26.9551 15.5264 4.19837 556.605 264.404 173.344
lowerback 13.8623 -2.51317 -10.9383
upperback -12.096 -5.14453 9.25596
thorax -20.232 0.271495 19.3809
lowerneck -17.9497 2.04119 -1.36913
upperneck 29.0777 5.37268 -8.31364
head 12.9684 0.794375 -2.17622
rclavicle -1.0297e-013 1.145e-013
rhumerus -60.2042 38.6225 -84.685
rradius 33.2247
rwrist -16.6319
rhand -22.1374 -21.0732
rfingers 7.12502
rthumb 4.27611 -51.01
lclavicle -1.0297e-013 1.145e-013
lhumerus -58.7715 16.7553 76.5008
lradius 32.9656
lwrist -6.51568
lhand -23.8056 32.3367
lfingers 7.12502
lthumb 2.66508 62.2998
rfemur -26.8927 7.73011 28.9893
rtibia 16.3353
rfoot -12.4234 -16.6096
rtoes -4.19689
lfemur 10.1337 -6.81164 -28.5006
ltibia 24.6022
lfoot -21.5684 -1.2069
ltoes -13.9881
371
root 26.6148 15.5939 4.14134 564.349 264.542 165.109
lowerback 14.0532 -2.41715 -10.4231
upperback -11.9832 -4.87725 9.36231
thorax -20.3586 0.335455 19.1429
lowerneck -17.8143 2.10943 -1.16124
upperneck 29.7313 5.47112 -8.49659
head 13.2305 0.794907 -2.29372
rclavicle -4.25399e-014 1.74931e-014
rhumerus -60.0352 38.8959 -85.2306
rradius 33.9834
rwrist -16.5825
rhand -22.455 -21.8159
rfingers 7.12502
rthumb 3.96937 -51.7587
lclavicle -4.25399e-014 1.74931e-014
lhumerus -60.2122 17.7046 74.3954
lradius 31.2267
lwrist -6.96236
lhand -22.5342 31.5163
lfingers 7.12502
lthumb 3.89292 61.4605
rfemur -24.0675 8.4641 30.4775
rtibia 14.9612
rfoot -13.1017 -16.3939
rtoes -4.60425
lfemur 7.57432 -4.47098 -26.1502
ltibia 30.2959
lfoot -23.2082 4.76499
ltoes -13.5813
372
root 26.2825 15.6595 4.08776 573.539 264.541 155.478
lowerback 14.178 -2.31728 -9.77509
upperback -11.8476 -4.55841 9.51581
thorax -20.4337 0.395132 18.8519
lowerneck -17.6346 2.17402 -1.15762
upperneck 30.3711 5.57002 -8.50269
head 13.469 0.797983 -2.30693
rclavicle -6.75868e-015 1.11319e-014
rhumerus -59.8138 39.2173 -85.645
rradius 34.9422
rwrist -16.5901
rhand -22.9639 -22.0041
rfingers 7.12502
rthumb 3.478 -51.9555
lclavicle -6.75868e-015 1.11319e-014
lhumerus -61.6068 18.8965 71.8345
lradius 29.6125
lwrist -8.72452
lhand -20.8525 33.6954
lfingers 7.12502
lthumb 5.51673 63.6036
rfemur -21.3135 8.95633 32.1099
rtibia 13.5447
rfoot -14.1571 -15.8251
rtoes -5.86702
lfemur 4.79989 -2.30842 -23.8919
ltibia 36.0397
lfoot -22.1396 7.03072
ltoes -14.1293
373
root 25.9604 15.7196 4.04154 581.481 264.412 147.247
lowerback 14.2103 -2.2597 -9.08744
upperback -11.7522 -4.2895 9.64426
thorax -20.4753 0.41748 18.504
lowerneck -17.3782 2.22825 -1.22389
upperneck 30.9071 5.67595 -8.55282
head 13.6507 0.794939 -2.32186
rclavicle -1.28812e-013 1.66979e-013
rhumerus -59.391 39.4838 -85.7976
rradius 35.9495
rwrist -16.463
rhand -23.5979 -21.9101
rfingers 7.12502
rthumb 2.8657 -51.8706
lclavicle -1.28812e-013 1.66979e-013
lhumerus -62.9961 19.9347 69.3126
lradius 28.3773
lwrist -10.5609
lhand -21.4505 32.3421
lfingers 7.12502
lthumb 4.93936 62.2646
rfemur -18.7674 9.26008 33.5498
rtibia 12.0596
rfoot -15.1362 -15.2003
rtoes -6.5538
lfemur 1.80004 -0.580504 -22.0754
ltibia 41.8095
lfoot -22.001 8.90233
ltoes -14.8377
